<?xml version="1.0" encoding="utf-8"?>
<!-- Generator: Adobe Illustrator 24.0.1, SVG Export Plug-In . SVG Version: 6.00 Build 0)  -->
<svg version="1.1" id="Camada_1" xmlns="http://www.w3.org/2000/svg" xmlns:xlink="http://www.w3.org/1999/xlink" x="0px" y="0px"
	 viewBox="0 0 600 600" style="enable-background:new 0 0 600 600;" xml:space="preserve">
<style type="text/css">
	.st0{fill-rule:evenodd;clip-rule:evenodd;fill:#FF6D00;}
	.st1{fill:#FF6D00;}
</style>
<g>
	<path class="st0" d="M538.93,490.93H560v-7.4h-7.42v-6.64l-6.63-0.48l-0.01-6.92h-7.01v-6.65h-7.03v-7.02h-7.02v-6.66h-6.65v-7
		h-7.03v-7.03h-7.03v76.49h7.03v-6.65l7.03,0.06v-2.64l0.1-2.98l-0.1-1.48h7.01v7.03h6.66v13.66h7.03v12.22
		c0,0.99,0.16,1.01,0.37,1.82h13.28v-13.67h-6.64v-9.22l-0.43-4.8l-6.58,0V490.93z"/>
	<path class="st1" d="M136.65,108.62h-18.44l3.82-19.03c0.13-0.64,0.05-1.21-0.25-1.72c-0.28-0.52-0.85-0.95-1.68-1.3
		c-0.83-0.35-2-0.6-3.53-0.76c-1.53-0.16-3.44-0.24-5.74-0.24c-2.35,0-4.31,0.08-5.87,0.24c-1.57,0.16-2.84,0.42-3.83,0.76
		c-0.98,0.35-1.72,0.78-2.19,1.3c-0.48,0.51-0.78,1.08-0.91,1.72l-3.83,19.03H83.98c-1.15,0-2.13,0.6-2.96,1.82
		c-0.83,1.2-1.5,2.66-2.01,4.34c-0.52,1.69-0.87,3.41-1.1,5.16c-0.22,1.75-0.33,3.17-0.33,4.25c0,1.53,0.18,2.57,0.57,3.11
		c0.39,0.55,0.99,0.81,1.81,0.81h10.33l-8.32,41.59c-0.2,0.83-0.37,1.76-0.53,2.82c-0.16,1.05-0.32,2.08-0.48,3.1
		c-0.16,1.02-0.28,2-0.33,2.92c-0.07,0.93-0.1,1.74-0.1,2.44c0,3.82,0.49,7.07,1.48,9.75c0.98,2.68,2.47,4.88,4.44,6.6
		c1.98,1.71,4.41,2.97,7.31,3.77c2.9,0.8,6.26,1.2,10.08,1.2c1.78,0,3.57-0.12,5.36-0.34c1.78-0.23,3.45-0.53,5.02-0.91
		c1.56-0.38,2.91-0.82,4.06-1.35c1.15-0.5,2.01-1.05,2.58-1.63c0.59-0.57,1.12-1.44,1.63-2.63c0.51-1.17,0.97-2.49,1.39-3.92
		c0.41-1.44,0.75-2.92,1.01-4.44c0.25-1.54,0.38-2.9,0.38-4.12c0-1.08-0.17-1.86-0.54-2.34c-0.35-0.48-0.77-0.71-1.28-0.71
		c-0.51,0-1.05,0.12-1.63,0.34c-0.57,0.22-1.26,0.48-2.05,0.77c-0.79,0.28-1.73,0.54-2.82,0.76c-1.09,0.22-2.39,0.34-3.92,0.34
		c-2.61,0-4.52-0.59-5.74-1.77c-1.21-1.18-1.81-3.05-1.81-5.6c0-0.83,0.08-1.89,0.24-3.2c0.16-1.31,0.34-2.44,0.53-3.4l8.03-40.04
		h18.64c0.7,0,1.35-0.3,1.96-0.91c0.6-0.6,1.15-1.37,1.62-2.29c0.48-0.92,0.91-1.95,1.29-3.1c0.39-1.15,0.69-2.3,0.91-3.45
		c0.22-1.15,0.4-2.21,0.52-3.2c0.14-0.99,0.2-1.8,0.2-2.43c0-1.34-0.2-2.36-0.58-3.06C138.47,108.97,137.74,108.62,136.65,108.62"/>
	<path class="st1" d="M187.82,73.44c-0.86-1.02-2.14-1.75-3.83-2.2c-1.69-0.45-3.87-0.67-6.55-0.67c-2.73,0-5.03,0.22-6.88,0.67
		c-1.85,0.45-3.41,1.17-4.67,2.2c-1.28,1.02-2.3,2.33-3.06,3.92c-0.76,1.6-1.38,3.54-1.81,5.83c-0.51,2.36-0.71,4.35-0.59,5.97
		c0.13,1.63,0.63,2.94,1.49,3.93c0.86,0.98,2.14,1.69,3.82,2.1c1.69,0.42,3.88,0.62,6.55,0.62c2.74,0,5.03-0.21,6.88-0.62
		c1.85-0.41,3.41-1.11,4.69-2.1c1.26-0.99,2.29-2.3,3.06-3.93c0.76-1.62,1.37-3.61,1.81-5.97c0.45-2.3,0.62-4.24,0.53-5.83
		C189.16,75.77,188.68,74.46,187.82,73.44"/>
	<path class="st1" d="M179.12,109.15c-0.86-0.35-2.04-0.62-3.53-0.82c-1.51-0.19-3.43-0.28-5.79-0.28c-2.36,0-4.31,0.09-5.88,0.28
		c-1.57,0.2-2.83,0.47-3.83,0.82c-0.99,0.35-1.72,0.76-2.2,1.24c-0.47,0.48-0.77,1.04-0.91,1.67l-16.92,85.08
		c-0.13,0.65-0.06,1.2,0.19,1.68c0.26,0.48,0.81,0.88,1.67,1.2c0.87,0.32,2.04,0.56,3.54,0.71c1.49,0.16,3.43,0.24,5.78,0.24
		c2.3,0,4.24-0.08,5.84-0.24c1.59-0.16,2.88-0.4,3.87-0.71c0.99-0.32,1.72-0.71,2.2-1.2c0.48-0.48,0.78-1.03,0.91-1.68l16.92-85.08
		c0.13-0.64,0.07-1.2-0.19-1.67C180.54,109.91,179.98,109.5,179.12,109.15"/>
	<path class="st1" d="M264.53,113.44c-0.75-0.72-1.92-1.54-3.49-2.43c-1.55-0.9-3.35-1.68-5.4-2.34c-2.04-0.67-4.27-1.21-6.69-1.58
		c-2.42-0.39-4.91-0.58-7.46-0.58c-6.57,0-12.37,1.02-17.4,3.06c-5.04,2.03-9.46,4.74-13.29,8.12c-3.82,3.38-7.06,7.26-9.7,11.66
		c-2.64,4.4-4.8,8.93-6.46,13.62c-1.66,4.69-2.85,9.36-3.58,14.01c-0.74,4.65-1.1,8.92-1.1,12.81c0,10.77,2.71,18.91,8.12,24.43
		c5.41,5.51,13.58,8.27,24.48,8.27c3.06,0,6-0.27,8.84-0.77c2.83-0.51,5.46-1.18,7.88-2.01c2.42-0.82,4.56-1.77,6.4-2.82
		c1.85-1.05,3.21-1.99,4.06-2.82c0.86-0.83,1.57-1.96,2.11-3.39c0.54-1.44,1.02-2.98,1.43-4.64c0.42-1.66,0.74-3.29,1-4.93
		c0.26-1.62,0.38-2.98,0.38-4.06c0-1.08-0.14-1.91-0.43-2.49c-0.29-0.57-0.75-0.86-1.39-0.86c-1.08,0-2.27,0.45-3.58,1.34
		c-1.31,0.89-2.87,1.89-4.68,3c-1.82,1.12-4,2.14-6.55,3.06c-2.55,0.92-5.6,1.39-9.18,1.39c-4.83,0-8.39-1.35-10.65-4.02
		s-3.39-6.6-3.39-11.76c0-2.04,0.18-4.44,0.53-7.21c0.35-2.77,0.94-5.67,1.77-8.69c0.83-3.03,1.88-6.03,3.15-8.99
		c1.27-2.97,2.89-5.61,4.82-7.94c1.95-2.32,4.23-4.22,6.84-5.68c2.61-1.47,5.57-2.2,8.88-2.2c3.12,0,5.67,0.4,7.66,1.19
		c1.97,0.8,3.61,1.67,4.92,2.63c1.31,0.96,2.4,1.81,3.29,2.58c0.89,0.77,1.82,1.15,2.77,1.15c1.03,0,1.96-0.56,2.83-1.67
		c0.86-1.12,1.58-2.5,2.15-4.16c0.57-1.65,1.04-3.41,1.39-5.25c0.35-1.85,0.52-3.51,0.52-4.98c0-0.83-0.11-1.53-0.33-2.1
		C265.79,114.83,265.29,114.18,264.53,113.44"/>
	<path class="st1" d="M360.65,115.07c0.86-1.37,1.29-2.57,1.29-3.58c0-0.58-0.18-1.08-0.52-1.53c-0.36-0.45-0.98-0.81-1.87-1.1
		c-0.9-0.29-2.13-0.5-3.73-0.62c-1.59-0.13-3.57-0.19-5.93-0.19c-2.43,0-4.44,0.06-6.07,0.19c-1.62,0.12-3.01,0.35-4.16,0.67
		c-1.14,0.31-2.08,0.75-2.82,1.29c-0.73,0.54-1.42,1.19-2.06,1.95l-31.93,34.12l14.91-74.85c0.13-0.64,0.06-1.22-0.19-1.72
		c-0.26-0.51-0.8-0.94-1.63-1.29c-0.83-0.35-1.99-0.62-3.49-0.82c-1.5-0.19-3.43-0.29-5.78-0.29s-4.31,0.1-5.88,0.29
		c-1.56,0.19-2.85,0.47-3.88,0.82c-1.01,0.35-1.75,0.78-2.19,1.29c-0.45,0.51-0.73,1.08-0.86,1.72l-25.24,125.8
		c-0.13,0.64-0.05,1.2,0.24,1.68c0.29,0.48,0.84,0.87,1.68,1.16c0.83,0.28,1.98,0.51,3.48,0.66c1.5,0.16,3.43,0.24,5.79,0.24
		c2.29,0,4.23-0.08,5.83-0.24c1.59-0.16,2.88-0.4,3.87-0.71c0.98-0.32,1.72-0.71,2.19-1.2c0.48-0.48,0.82-1.03,1-1.68l9-45.12
		l20.17,44.93c0.19,0.76,0.49,1.4,0.9,1.9c0.42,0.51,1.05,0.93,1.91,1.24c0.86,0.32,2.08,0.54,3.63,0.68
		c1.56,0.12,3.62,0.19,6.17,0.19c2.55,0,4.67-0.08,6.36-0.24c1.69-0.16,3.03-0.43,4.01-0.81c0.98-0.39,1.69-0.86,2.1-1.44
		c0.42-0.57,0.62-1.25,0.62-2c0-0.64-0.13-1.54-0.38-2.69c-0.26-1.14-0.71-2.48-1.34-4.02l-19.6-41.11l30.12-28.38
		C358.38,118.18,359.79,116.44,360.65,115.07"/>
	<path class="st1" d="M438.05,113.93c-2.69-2.26-6.1-4.08-10.28-5.45c-4.18-1.37-9.16-2.05-14.97-2.05
		c-6.69,0-12.65,0.99-17.88,2.97c-5.23,1.97-9.83,4.6-13.81,7.88c-3.99,3.29-7.38,7.09-10.19,11.43c-2.8,4.33-5.1,8.88-6.88,13.62
		c-1.79,4.75-3.08,9.56-3.88,14.44c-0.8,4.88-1.19,9.44-1.19,13.71c0,5.54,0.77,10.35,2.3,14.39c1.52,4.04,3.82,7.37,6.88,9.99
		c3.05,2.61,6.87,4.56,11.42,5.84c4.56,1.27,9.89,1.91,16.02,1.91c3.69,0,7.32-0.2,10.9-0.62c3.56-0.41,6.79-0.94,9.66-1.59
		c2.87-0.63,5.32-1.33,7.36-2.1c2.03-0.76,3.44-1.53,4.2-2.29c0.7-0.64,1.32-1.56,1.86-2.77c0.55-1.22,0.99-2.5,1.34-3.88
		c0.36-1.37,0.63-2.75,0.81-4.15c0.19-1.41,0.29-2.65,0.29-3.74c0-0.95-0.16-1.66-0.48-2.1c-0.32-0.45-0.86-0.67-1.63-0.67
		c-0.76,0-1.97,0.3-3.63,0.91c-1.66,0.61-3.75,1.28-6.26,2.01c-2.52,0.74-5.45,1.4-8.8,2.01c-3.34,0.61-7.11,0.9-11.33,0.9
		c-5.92,0-10.23-1.3-12.9-3.92c-2.68-2.61-4.02-6.5-4.02-11.66c0-1.2,0.07-2.53,0.2-3.97c0.12-1.43,0.31-2.88,0.57-4.35h8.79
		c9.31,0,17.32-0.7,24.05-2.1c6.72-1.41,12.27-3.43,16.64-6.08c4.36-2.65,7.58-5.8,9.65-9.46c2.07-3.66,3.11-7.79,3.11-12.38
		c0-3.06-0.65-6.04-1.96-8.94C442.71,118.77,440.72,116.19,438.05,113.93 M420.94,137.44c-0.96,1.56-2.49,2.92-4.59,4.06
		c-2.11,1.16-4.88,2.05-8.32,2.73c-3.44,0.66-7.72,1-12.8,1h-8.03c0.83-3,1.92-5.81,3.29-8.46c1.38-2.64,3.02-4.94,4.93-6.88
		c1.91-1.95,4.13-3.49,6.65-4.63c2.51-1.16,5.37-1.72,8.55-1.72c3.83,0,6.74,0.84,8.75,2.53c2,1.69,3.01,3.8,3.01,6.36
		C422.37,134.21,421.88,135.88,420.94,137.44"/>
	<path class="st1" d="M518.83,115.17c0.13-0.99,0.18-1.8,0.18-2.43c0-1.34-0.18-2.36-0.57-3.06c-0.38-0.7-1.12-1.05-2.2-1.05H497.8
		l3.83-19.03c0.12-0.64,0.04-1.21-0.24-1.72c-0.29-0.52-0.84-0.95-1.67-1.3c-0.83-0.35-2.01-0.6-3.54-0.76
		c-1.53-0.16-3.44-0.24-5.74-0.24c-2.35,0-4.32,0.08-5.88,0.24c-1.56,0.16-2.84,0.42-3.82,0.76c-0.99,0.35-1.73,0.78-2.2,1.3
		c-0.48,0.51-0.78,1.08-0.91,1.72l-3.82,19.03h-10.23c-1.15,0-2.13,0.6-2.97,1.82c-0.83,1.2-1.5,2.66-2,4.35
		c-0.51,1.68-0.88,3.41-1.1,5.15c-0.23,1.75-0.34,3.17-0.34,4.25c0,1.53,0.19,2.57,0.57,3.11c0.39,0.55,0.99,0.81,1.82,0.81h10.33
		l-8.32,41.59c-0.19,0.83-0.37,1.77-0.53,2.82c-0.16,1.05-0.32,2.08-0.47,3.1c-0.17,1.02-0.27,2-0.35,2.92
		c-0.06,0.93-0.09,1.74-0.09,2.44c0,3.82,0.49,7.07,1.48,9.75c0.99,2.68,2.47,4.88,4.44,6.6c1.97,1.72,4.42,2.97,7.32,3.77
		c2.9,0.8,6.27,1.2,10.09,1.2c1.79,0,3.57-0.12,5.35-0.34c1.79-0.23,3.46-0.53,5.02-0.91c1.56-0.38,2.92-0.82,4.07-1.35
		c1.14-0.5,2-1.05,2.57-1.63c0.58-0.57,1.12-1.44,1.63-2.63c0.52-1.17,0.97-2.49,1.4-3.92c0.41-1.44,0.74-2.92,1-4.44
		c0.25-1.54,0.39-2.9,0.39-4.12c0-1.08-0.18-1.86-0.53-2.34c-0.35-0.48-0.78-0.71-1.29-0.71c-0.52,0-1.05,0.12-1.63,0.34
		c-0.58,0.23-1.26,0.48-2.05,0.77c-0.81,0.28-1.74,0.54-2.83,0.76c-1.08,0.22-2.39,0.34-3.92,0.34c-2.62,0-4.53-0.59-5.74-1.77
		c-1.21-1.18-1.81-3.05-1.81-5.6c0-0.82,0.08-1.89,0.24-3.2c0.15-1.31,0.33-2.44,0.52-3.4l8.03-40.05h18.64
		c0.7,0,1.36-0.3,1.96-0.91c0.61-0.6,1.15-1.37,1.62-2.29c0.48-0.92,0.91-1.95,1.3-3.1c0.38-1.15,0.68-2.3,0.9-3.45
		C518.52,117.22,518.7,116.16,518.83,115.17"/>
	<path class="st1" d="M184.36,223c-4.68-3.82-10.61-6.79-17.77-8.89c-7.16-2.1-15.59-3.15-25.28-3.15c-7.01,0-13.76,0.68-20.27,2.02
		c-6.52,1.35-12.41,2.99-17.69,4.93c-5.27,1.94-9.72,3.93-13.33,5.98c-3.61,2.04-6.12,3.71-7.52,5.01c-1.3,1.29-2.45,3.2-3.47,5.74
		c-1.02,2.54-1.83,5.11-2.42,7.75c-0.6,2.64-1.02,5.09-1.3,7.35c-0.27,2.26-0.4,3.94-0.4,5.01c0,1.94,0.3,3.47,0.89,4.6
		c0.58,1.14,1.53,1.7,2.82,1.7c1.3,0,3.5-0.86,6.62-2.59c3.12-1.72,6.84-3.6,11.15-5.65c4.3-2.04,9.07-3.93,14.3-5.65
		c5.23-1.72,10.64-2.58,16.24-2.58c8.61,0,14.75,1.8,18.41,5.4c3.67,3.61,5.49,8.38,5.49,14.3c0,5.06-1.05,9.83-3.14,14.3
		c-2.11,4.47-5.13,8.4-9.05,11.8c-3.93,3.39-8.76,6.08-14.46,8.07c-5.71,2-12.18,2.99-19.39,2.99h-18.1c-1.4,0-2.66,0.52-3.79,1.53
		c-1.13,1.03-2.11,2.32-2.91,3.89c-0.81,1.56-1.54,3.31-2.18,5.25c-0.64,1.93-1.16,3.82-1.53,5.65c-0.38,1.82-0.65,3.55-0.8,5.16
		c-0.17,1.62-0.24,2.8-0.24,3.56c0,2.26,0.46,3.86,1.37,4.77c0.91,0.92,2.45,1.38,4.6,1.38h19.88c7.21,0,13.22,0.65,18.01,1.94
		c4.8,1.3,8.67,3.04,11.64,5.25c2.96,2.21,5.06,4.82,6.3,7.84c1.25,3.02,1.87,6.3,1.87,9.85c0,4.42-0.9,8.78-2.67,13.08
		c-1.77,4.31-4.49,8.16-8.15,11.56c-3.66,3.39-8.27,6.15-13.82,8.24c-5.54,2.1-12.14,3.15-19.8,3.15c-6.78,0-12.76-0.69-17.92-2.09
		c-5.17-1.4-9.61-2.97-13.34-4.69c-3.71-1.72-6.76-3.29-9.13-4.69c-2.36-1.4-4.14-2.1-5.33-2.1c-1.07,0-2.02,0.51-2.83,1.54
		c-0.81,1.03-1.53,2.37-2.18,4.03c-0.65,1.68-1.18,3.51-1.62,5.5c-0.43,1.99-0.81,3.93-1.13,5.81c-0.32,1.88-0.57,3.64-0.72,5.25
		c-0.17,1.62-0.25,2.86-0.25,3.72c0,2.37,0.38,4.31,1.13,5.82c0.75,1.51,2.1,2.85,4.03,4.04c2.91,1.73,6.19,3.32,9.86,4.78
		c3.66,1.44,7.67,2.69,12.03,3.71c4.37,1.02,8.94,1.83,13.73,2.43c4.8,0.59,9.83,0.89,15.12,0.89c11.62,0,21.99-1.07,31.1-3.23
		c9.1-2.15,17.05-5.06,23.83-8.73c6.79-3.66,12.53-7.92,17.21-12.76c4.68-4.85,8.5-9.94,11.47-15.27
		c2.96-5.33,5.09-10.74,6.38-16.24c1.3-5.49,1.94-10.76,1.94-15.83c0-4.31-0.67-8.67-2.01-13.1c-1.35-4.41-3.54-8.48-6.55-12.19
		c-3.02-3.72-6.92-6.89-11.71-9.53c-4.8-2.64-10.69-4.33-17.7-5.09v-0.49c7.54-1.83,14.3-4.68,20.28-8.56
		c5.98-3.88,11.04-8.46,15.18-13.73c4.15-5.28,7.32-11.15,9.53-17.62c2.21-6.45,3.32-13.13,3.32-20.03c0-6.68-1.13-12.74-3.4-18.18
		C192.52,231.45,189.05,226.82,184.36,223"/>
	<path class="st1" d="M366.85,216.94c-4.63-1.72-10.05-3.12-16.24-4.2c-6.2-1.07-13.17-1.62-20.92-1.62
		c-12.51,0-23.7,1.83-33.61,5.49c-9.91,3.66-18.66,8.59-26.25,14.79c-7.6,6.19-14.14,13.36-19.63,21.49
		c-5.49,8.13-10.16,16.67-13.98,25.6c-3.82,8.95-6.95,17.94-9.37,26.98c-2.42,9.05-4.28,17.61-5.57,25.7
		c-1.3,8.08-2.16,15.4-2.59,21.97c-0.44,6.57-0.65,11.75-0.65,15.51c0,8.95,0.99,17.03,2.99,24.24c1.99,7.22,5.25,13.39,9.78,18.51
		c4.53,5.12,10.39,9.08,17.61,11.87c7.22,2.8,16.05,4.2,26.5,4.2c11.63,0,21.89-1.48,30.78-4.44c8.89-2.96,16.59-6.92,23.11-11.88
		c6.51-4.95,11.89-10.58,16.15-16.88c4.26-6.3,7.68-12.76,10.26-19.38c2.59-6.63,4.44-13.17,5.57-19.64
		c1.13-6.46,1.7-12.28,1.7-17.44c0-6.14-0.92-11.99-2.75-17.54c-1.83-5.54-4.79-10.42-8.88-14.63c-4.1-4.2-9.35-7.51-15.75-9.93
		c-6.42-2.42-14.25-3.63-23.51-3.63c-8.83,0-16.8,1.02-23.91,3.06c-7.1,2.06-13.46,4.64-19.07,7.76c1.94-7.97,4.55-15.57,7.84-22.79
		c3.28-7.21,7.38-13.51,12.28-18.9c4.91-5.39,10.7-9.67,17.38-12.85c6.67-3.17,14.37-4.76,23.1-4.76c5.07,0,9.45,0.33,13.16,0.98
		c3.72,0.64,6.95,1.39,9.7,2.26c2.74,0.86,5.03,1.65,6.86,2.34c1.84,0.7,3.45,1.05,4.85,1.05c1.18,0,2.24-0.54,3.15-1.62
		c0.91-1.08,1.73-2.43,2.43-4.03c0.69-1.62,1.32-3.43,1.86-5.42c0.53-1.98,0.94-3.9,1.21-5.73c0.27-1.83,0.49-3.47,0.64-4.94
		c0.17-1.45,0.25-2.55,0.25-3.3c0-2.05-0.46-3.69-1.37-4.93C371.03,219.02,369.33,217.91,366.85,216.94 M271.05,330.76
		c2.8-1.34,5.68-2.5,8.64-3.47c2.96-0.97,6-1.7,9.13-2.18c3.12-0.49,6.14-0.73,9.04-0.73c3.88,0,7.25,0.46,10.1,1.37
		c2.85,0.91,5.17,2.26,6.94,4.04c1.78,1.78,3.1,3.9,3.96,6.38c0.86,2.49,1.29,5.23,1.29,8.24c0,3.02-0.32,6.36-0.96,10.02
		c-0.65,3.66-1.65,7.35-2.99,11.06c-1.35,3.72-3.04,7.36-5.09,10.91c-2.05,3.56-4.5,6.68-7.35,9.37c-2.86,2.69-6.12,4.88-9.78,6.55
		c-3.66,1.67-7.76,2.5-12.28,2.5c-7.33,0-12.91-2.07-16.72-6.22c-3.83-4.15-5.74-11.18-5.74-21.08c0-4.2,0.27-8.97,0.81-14.29
		c0.54-5.34,1.51-11.39,2.91-18.18C265.55,333.54,268.24,332.11,271.05,330.76"/>
	<path class="st1" d="M538.69,248.12c-0.24-0.93-0.56-1.79-0.84-2.69c-1.68,0.09-3.42,0.16-5.27,0.16
		c-12.74,0-21.22-2.08-25.66-6.29c-4.45-4.2-6.68-11.71-6.68-22.67c0-1.38,0.03-2.7,0.11-3.98c-5.39-1.07-11.32-1.69-17.95-1.69
		c-6.47,0-12.51,0.52-18.11,1.54c-5.6,1.02-10.8,2.48-15.59,4.36c-4.79,1.88-9.18,4.2-13.17,6.95c-3.98,2.74-7.59,5.73-10.82,8.96
		c-5.17,5.18-9.78,11.26-13.82,18.26c-4.04,7.01-7.65,14.47-10.82,22.38c-3.18,7.92-5.87,16.08-8.08,24.48
		c-2.21,8.4-4.05,16.62-5.49,24.64c-1.46,8.03-2.5,15.62-3.15,22.78c-0.65,7.17-0.96,13.38-0.96,18.66c0,9.91,1.07,18.79,3.22,26.66
		c2.16,7.86,5.6,14.51,10.34,19.95c4.74,5.43,10.85,9.61,18.34,12.52c7.49,2.91,16.62,4.36,27.38,4.36c13.14,0,24.4-2,33.77-5.98
		c9.38-3.99,17.4-9.26,24.08-15.83c5.06-5.06,9.63-11.09,13.73-18.09c4.1-7.01,7.7-14.47,10.82-22.38
		c3.13-7.92,5.79-16.07,7.99-24.49c2.21-8.4,4.05-16.64,5.5-24.71c1.46-8.08,2.5-15.7,3.15-22.86c0.65-7.16,0.96-13.49,0.96-18.98
		C541.67,264.56,540.68,255.88,538.69,248.12 M498.7,288.43c-0.54,5.76-1.37,12.17-2.51,19.23c-1.13,7.05-2.52,14.4-4.2,22.05
		c-1.67,7.65-3.63,14.98-5.89,21.98c-2.27,7-4.8,13.44-7.6,19.31c-2.8,5.87-5.87,10.48-9.21,13.82c-2.8,2.8-6,4.99-9.61,6.54
		c-3.61,1.57-7.67,2.35-12.19,2.35c-8.08,0-13.92-2.42-17.54-7.27c-3.6-4.85-5.41-12.44-5.41-22.78c0-3.23,0.3-7.73,0.89-13.49
		c0.59-5.76,1.46-12.17,2.59-19.23c1.13-7.05,2.51-14.4,4.12-22.05c1.62-7.65,3.55-15,5.81-22.06c2.26-7.05,4.79-13.49,7.59-19.31
		c2.81-5.81,5.88-10.44,9.21-13.9c2.91-2.8,6.15-5.01,9.7-6.63c3.55-1.62,7.59-2.41,12.12-2.41c8.17,0,14.06,2.41,17.6,7.26
		c3.56,4.85,5.34,12.5,5.34,22.94C499.51,278.12,499.23,282.67,498.7,288.43"/>
	<path class="st0" d="M532.61,240.13c10.25,0,17.32-1.74,21.06-5.3c3.82-3.57,5.69-9.94,5.69-19.25c0-8.88-1.81-15.07-5.48-18.58
		c-3.64-3.49-10.62-5.23-20.89-5.23c-10.36,0-17.43,1.8-21.12,5.43c-3.75,3.63-5.64,10.06-5.64,19.31c0,8.94,1.82,15.07,5.45,18.5
		C515.28,238.45,522.22,240.13,532.61,240.13"/>
	<path class="st1" d="M237.17,494.24c0,0.71-0.07,1.63-0.22,2.76c-0.13,1.13-0.36,2.3-0.67,3.5c-0.3,1.21-0.7,2.36-1.2,3.47
		c-0.49,1.1-1.1,2.02-1.83,2.75c-0.74,0.73-1.82,1.32-3.25,1.77c-1.44,0.44-3.34,0.67-5.7,0.67c-1.74,0-3.19-0.15-4.34-0.43
		c-1.16-0.28-2.07-0.71-2.76-1.28c-0.68-0.57-1.16-1.28-1.45-2.16c-0.29-0.87-0.43-1.89-0.43-3.07c0-0.76,0.08-1.69,0.25-2.83
		c0.17-1.13,0.4-2.3,0.7-3.5c0.31-1.21,0.71-2.35,1.21-3.43c0.5-1.08,1.12-1.99,1.87-2.72c0.75-0.73,1.81-1.32,3.18-1.77
		c1.37-0.45,3.27-0.67,5.72-0.67c1.83,0,3.35,0.16,4.53,0.5c1.17,0.33,2.1,0.79,2.76,1.38c0.66,0.59,1.09,1.32,1.3,2.19
		C237.05,492.25,237.17,493.2,237.17,494.24"/>
	<path class="st1" d="M304.77,446.93c0,1.08-0.13,2.31-0.39,3.68c-0.26,1.37-0.6,2.66-1.02,3.89c-0.43,1.23-0.95,2.25-1.6,3.08
		c-0.64,0.82-1.33,1.24-2.09,1.24c-0.7,0-1.39-0.29-2.05-0.85c-0.66-0.57-1.47-1.21-2.44-1.91c-0.97-0.7-2.18-1.36-3.64-1.94
		c-1.46-0.59-3.35-0.89-5.65-0.89c-2.46,0-4.65,0.54-6.58,1.63c-1.93,1.08-3.62,2.48-5.06,4.2c-1.44,1.72-2.63,3.68-3.57,5.87
		c-0.94,2.19-1.72,4.41-2.33,6.65c-0.62,2.23-1.05,4.38-1.31,6.43c-0.26,2.05-0.39,3.84-0.39,5.34c0,3.82,0.83,6.72,2.51,8.7
		c1.67,1.97,4.3,2.97,7.88,2.97c2.64,0,4.91-0.34,6.79-1.02c1.89-0.68,3.5-1.44,4.85-2.27c1.34-0.82,2.49-1.57,3.46-2.22
		c0.96-0.66,1.85-0.99,2.65-0.99c0.48,0,0.81,0.21,1.03,0.63c0.21,0.42,0.32,1.04,0.32,1.84c0,0.8-0.09,1.8-0.29,3
		c-0.19,1.2-0.44,2.42-0.74,3.64c-0.31,1.22-0.66,2.37-1.06,3.43c-0.4,1.06-0.92,1.9-1.55,2.51c-0.63,0.61-1.64,1.3-3.01,2.09
		c-1.37,0.78-2.95,1.47-4.74,2.08c-1.79,0.62-3.73,1.11-5.83,1.49c-2.1,0.38-4.28,0.57-6.55,0.57c-8.06,0-14.09-2.04-18.11-6.12
		c-4.01-4.08-6.01-10.1-6.01-18.06c0-2.88,0.28-6.03,0.82-9.48c0.55-3.44,1.42-6.9,2.65-10.36c1.23-3.46,2.81-6.83,4.77-10.08
		c1.96-3.25,4.35-6.12,7.18-8.62c2.83-2.5,6.11-4.51,9.83-6.02c3.72-1.51,8.01-2.26,12.87-2.26c1.88,0,3.72,0.14,5.51,0.43
		c1.79,0.29,3.45,0.67,4.95,1.16c1.51,0.5,2.85,1.08,4,1.74c1.16,0.66,2.01,1.26,2.58,1.8c0.57,0.54,0.94,1.02,1.1,1.45
		C304.68,445.8,304.77,446.32,304.77,446.93"/>
	<path class="st1" d="M374.78,463.98c0,3.39-0.32,6.88-0.95,10.46c-0.63,3.59-1.64,7.08-3.01,10.51c-1.37,3.42-3.12,6.62-5.27,9.61
		c-2.14,3-4.71,5.64-7.71,7.92c-3,2.28-6.43,4.09-10.29,5.41c-3.87,1.31-8.23,1.97-13.08,1.97c-4.76,0-8.88-0.55-12.34-1.66
		c-3.46-1.1-6.35-2.73-8.67-4.87c-2.31-2.15-4.03-4.79-5.16-7.92c-1.14-3.14-1.7-6.73-1.7-10.79c0-3.39,0.31-6.87,0.95-10.47
		c0.64-3.58,1.64-7.07,3.01-10.46c1.37-3.39,3.12-6.61,5.27-9.65c2.14-3.05,4.72-5.69,7.71-7.96c2.99-2.26,6.42-4.05,10.28-5.38
		c3.87-1.32,8.22-1.98,13.09-1.98c4.76,0,8.87,0.55,12.34,1.66c3.47,1.1,6.36,2.73,8.67,4.87c2.31,2.15,4.03,4.79,5.16,7.93
		C374.21,456.33,374.78,459.92,374.78,463.98 M356.39,465.18c0-1.98-0.21-3.74-0.61-5.27c-0.4-1.53-1.06-2.83-1.98-3.89
		c-0.92-1.06-2.1-1.87-3.54-2.44c-1.44-0.56-3.19-0.84-5.26-0.84c-2.37,0-4.48,0.46-6.37,1.38c-1.88,0.91-3.57,2.15-5.05,3.71
		c-1.49,1.56-2.78,3.36-3.86,5.41c-1.09,2.06-1.98,4.2-2.69,6.46c-0.71,2.27-1.23,4.57-1.56,6.9c-0.33,2.33-0.5,4.56-0.5,6.68
		c0,1.98,0.21,3.75,0.6,5.3c0.4,1.56,1.06,2.87,1.97,3.92c0.92,1.07,2.1,1.88,3.54,2.45c1.44,0.57,3.19,0.84,5.27,0.84
		c2.36,0,4.48-0.46,6.36-1.38c1.89-0.91,3.57-2.16,5.06-3.75c1.49-1.58,2.77-3.39,3.86-5.44c1.08-2.05,1.98-4.22,2.68-6.5
		c0.71-2.29,1.23-4.59,1.56-6.9C356.23,469.51,356.39,467.29,356.39,465.18"/>
	<path class="st1" d="M480.5,505.84c-0.09,0.47-0.32,0.88-0.67,1.23c-0.36,0.35-0.91,0.65-1.67,0.88c-0.75,0.24-1.71,0.42-2.86,0.54
		c-1.16,0.11-2.61,0.17-4.35,0.17c-1.7,0-3.11-0.06-4.24-0.17c-1.13-0.12-2-0.3-2.61-0.54c-0.62-0.23-1.03-0.53-1.24-0.88
		c-0.21-0.35-0.25-0.77-0.11-1.23l7.57-37.84c0.19-1.08,0.35-2.16,0.49-3.22c0.14-1.06,0.21-2.14,0.21-3.22
		c0-2.22-0.41-4.01-1.23-5.37c-0.83-1.37-2.3-2.05-4.42-2.05c-1.89,0-3.84,0.62-5.87,1.84c-2.03,1.23-3.97,2.89-5.83,4.99
		c-1.87,2.1-3.52,4.54-4.96,7.35c-1.44,2.8-2.46,5.79-3.08,8.95l-5.73,28.57c-0.1,0.47-0.31,0.88-0.67,1.23
		c-0.35,0.35-0.9,0.65-1.66,0.88c-0.75,0.24-1.71,0.42-2.86,0.54c-1.15,0.11-2.6,0.17-4.35,0.17c-1.7,0-3.1-0.06-4.21-0.17
		c-1.11-0.12-1.97-0.3-2.58-0.54c-0.61-0.23-1.03-0.53-1.24-0.88c-0.21-0.35-0.27-0.77-0.17-1.23l7.49-37.84
		c0.29-1.08,0.49-2.2,0.6-3.36c0.12-1.16,0.17-2.28,0.17-3.36c0-2.07-0.42-3.78-1.27-5.12c-0.85-1.35-2.31-2.02-4.38-2.02
		c-1.89,0-3.84,0.62-5.87,1.84c-2.02,1.23-3.97,2.89-5.84,4.99c-1.86,2.1-3.51,4.54-4.94,7.35c-1.44,2.8-2.46,5.79-3.08,8.95
		l-5.73,28.57c-0.09,0.47-0.32,0.88-0.67,1.23c-0.36,0.35-0.89,0.65-1.63,0.88c-0.73,0.24-1.68,0.42-2.86,0.54
		c-1.18,0.11-2.62,0.17-4.31,0.17c-1.75,0-3.17-0.06-4.28-0.17c-1.11-0.12-1.98-0.3-2.62-0.54c-0.64-0.23-1.05-0.53-1.24-0.88
		c-0.19-0.35-0.24-0.77-0.14-1.23l12.65-63.15c0.09-0.47,0.3-0.88,0.61-1.24c0.31-0.36,0.78-0.64,1.41-0.85
		c0.64-0.21,1.46-0.38,2.48-0.5c1-0.11,2.22-0.17,3.64-0.17c1.45,0,2.64,0.06,3.56,0.17c0.92,0.12,1.64,0.29,2.16,0.5
		c0.52,0.21,0.86,0.49,1.02,0.85c0.16,0.36,0.21,0.77,0.11,1.24l-2.06,10.39c1-1.65,2.31-3.33,3.97-5.05
		c1.65-1.72,3.52-3.27,5.63-4.64c2.09-1.36,4.38-2.48,6.85-3.36c2.47-0.87,5.03-1.3,7.67-1.3c2.73,0,5.11,0.36,7.11,1.1
		c2,0.73,3.65,1.75,4.95,3.04c1.29,1.3,2.28,2.82,2.97,4.56c0.68,1.75,1.11,3.63,1.3,5.65c1.09-1.69,2.47-3.4,4.14-5.09
		c1.67-1.7,3.56-3.23,5.66-4.6c2.09-1.36,4.37-2.48,6.82-3.36c2.46-0.87,4.97-1.3,7.56-1.3c3.3,0,6.07,0.46,8.31,1.38
		c2.24,0.92,4.04,2.19,5.41,3.83c1.37,1.62,2.35,3.53,2.97,5.72c0.61,2.19,0.92,4.56,0.92,7.1c0,1.65-0.09,3.32-0.28,4.99
		c-0.19,1.68-0.48,3.38-0.85,5.13L480.5,505.84z"/>
</g>
</svg>
